HIERARCHY
ROOT Hips
{
  OFFSET 66.8636 91.4232 30.2206
  CHANNELS 6 Xposition Yposition Zposition Zrotation Xrotation Yrotation
  JOINT spine
  {
    OFFSET 0 6.84637 0.3937
    CHANNELS 3 Zrotation Xrotation Yrotation
    JOINT spine1
    {
      OFFSET 0 9.49621 0
      CHANNELS 3 Zrotation Xrotation Yrotation
      JOINT spine2
      {
        OFFSET 0 9.09909 0
        CHANNELS 3 Zrotation Xrotation Yrotation
        JOINT Neck
        {
          OFFSET 0 23.3612 1.11378
          CHANNELS 3 Zrotation Xrotation Yrotation
          JOINT Head
          {
            OFFSET 0 7.05802 0
            CHANNELS 3 Zrotation Xrotation Yrotation
            End Site
            {
              OFFSET 0 17.0844 -5.63419
            }
          }
        }
        JOINT RightShoulder
        {
          OFFSET -3.83136 9.82631 -0.533491
          CHANNELS 3 Zrotation Xrotation Yrotation
          JOINT RightArm
          {
            OFFSET 0 12.8881 0
            CHANNELS 3 Zrotation Xrotation Yrotation
            JOINT RightArmRoll
            {
              OFFSET 0 6.50617 0
              CHANNELS 3 Zrotation Xrotation Yrotation
              JOINT RightForeArm
              {
                OFFSET 0 18.9501 0
                CHANNELS 3 Zrotation Xrotation Yrotation
                JOINT RightForeArmRoll
                {
                  OFFSET 0 7.30092 0
                  CHANNELS 3 Zrotation Xrotation Yrotation
                  JOINT RightHand
                  {
                    OFFSET 0 14.6514 0
                    CHANNELS 3 Zrotation Xrotation Yrotation
                    End Site
                    {
                      OFFSET 0 0 0
                    }
                  }
                }
              }
            }
          }
        }
        JOINT LeftShoulder
        {
          OFFSET 3.83136 9.82631 -0.533491
          CHANNELS 3 Zrotation Xrotation Yrotation
          JOINT LeftArm
          {
            OFFSET 0 12.8881 0
            CHANNELS 3 Zrotation Xrotation Yrotation
            JOINT LeftArmRoll
            {
              OFFSET 0 6.50617 0
              CHANNELS 3 Zrotation Xrotation Yrotation
              JOINT LeftForeArm
              {
                OFFSET 0 18.9501 0
                CHANNELS 3 Zrotation Xrotation Yrotation
                JOINT LeftForeArmRoll
                {
                  OFFSET 0 7.30092 0
                  CHANNELS 3 Zrotation Xrotation Yrotation
                  JOINT LeftHand
                  {
                    OFFSET 0 14.6514 0
                    CHANNELS 3 Zrotation Xrotation Yrotation
                    End Site
                    {
                      OFFSET 0 0 0
                    }
                  }
                }
              }
            }
          }
        }
      }
    }
  }
  JOINT RightUpLeg
  {
    OFFSET -6.06837 -1.11278 -0.933477
    CHANNELS 3 Zrotation Xrotation Yrotation
    JOINT RightUpLegRoll
    {
      OFFSET 0 17.1796 0
      CHANNELS 3 Zrotation Xrotation Yrotation
      JOINT RightLeg
      {
        OFFSET 0 -21.2743 0
        CHANNELS 3 Zrotation Xrotation Yrotation
        JOINT RightLegRoll
        {
          OFFSET 0 21.3439 0
          CHANNELS 3 Zrotation Xrotation Yrotation
          JOINT RightFoot
          {
            OFFSET 0 17.7652 0
            CHANNELS 3 Zrotation Xrotation Yrotation
            JOINT RightToeBase
            {
              OFFSET 0 14.8508 0
              CHANNELS 3 Zrotation Xrotation Yrotation
              End Site
              {
                OFFSET 0.0062947 7.19214 -0.829005
              }
            }
          }
        }
      }
    }
  }
  JOINT LeftUpLeg
  {
    OFFSET 6.06837 -1.11278 -0.933477
    CHANNELS 3 Zrotation Xrotation Yrotation
    JOINT LeftUpLegRoll
    {
      OFFSET 0 17.1797 0
      CHANNELS 3 Zrotation Xrotation Yrotation
      JOINT LeftLeg
      {
        OFFSET 0 21.2742 0
        CHANNELS 3 Zrotation Xrotation Yrotation
        JOINT LeftLegRoll
        {
          OFFSET 0 21.5412 0
          CHANNELS 3 Zrotation Xrotation Yrotation
          JOINT LeftFoot
          {
            OFFSET 0 17.5679 0
            CHANNELS 3 Zrotation Xrotation Yrotation
            JOINT LeftToeBase
            {
              OFFSET 0 14.8508 0
              CHANNELS 3 Zrotation Xrotation Yrotation
              End Site
              {
                OFFSET -0.0282102 7.19213 -0.829005
              }
            }
          }
        }
      }
    }
  }
}
MOTION
Frames: 12
Frame Time: 0.00208333
57.6326 91.493 13.0675 0.0932981 0.803218 -2.49915 0.132511 -1.78226 0.00218238 0.259647 0.43826 -0.0229543 0.260044 2.08331 -0.0273092 -7.61414 22.5162 2.75673 5.53532 -9.43754 0.820102 66.8691 3.50477 0.906697 104 8.07894 13.5215 -2.91161e-005 -1.53425e-006 -5.11207e-006 9.61917 15.798 -2.6089 -5.36726e-006 3.86445e-006 -2.99999 8.029 -4.95146 0.697683 -69.3809 0.425724 1.00323 -101.168 14.1929 -29.7523 2.05022e-005 -1.11409e-005 3.78478e-006 -3.44978 0.0310923 0.384351 5.48594e-006 -1.30208e-006 3.10052 -8.02986 -4.9514 -0.697644 175.032 3.85511 1.08808 180 7.01552e-015 178.946 178.363 5.63887 179.884 -1.02913e-006 2.18841e-006 0.0354793 -18.3488 67.4628 19.1069 8.13287 25.2328 -3.48619 -175.75 0.73884 0.0424375 4.54188e-006 -4.6773e-006 -1.07134 -2.12511 -4.77804 0.0493228 1.01584e-006 -2.57673e-006 -0.0486788 18.5671 67.7902 -19.3597 -8.13155 25.2329 3.48563 
57.6363 91.4944 13.0832 0.087177 0.840388 -2.4925 0.133304 -1.78187 0.00329992 0.261579 0.439048 -0.0198002 0.261942 2.0841 -0.0241857 -7.57742 22.4746 2.74163 5.50598 -9.42548 0.815795 66.8831 3.49355 0.898691 103.96 7.99601 13.59 -2.91161e-005 -1.53425e-006 -5.11207e-006 9.59779 15.7794 -2.60451 -5.36726e-006 3.86445e-006 -2.99999 8.029 -4.95146 0.697683 -69.3208 0.405784 1.00624 -101.23 14.0627 -29.5612 2.05022e-005 -1.11409e-005 3.78478e-006 -3.66424 0.0325351 0.385864 5.48594e-006 -1.30208e-006 3.0969 -8.02986 -4.9514 -0.697644 175.044 3.90911 1.07682 180 7.01552e-015 178.946 178.369 5.66147 179.884 -1.02913e-006 2.18841e-006 0.0354733 -18.341 67.4531 19.0984 8.13287 25.2328 -3.48619 -175.741 0.793611 0.0374907 4.54188e-006 -4.6773e-006 -1.07097 -2.12763 -4.79478 0.0491443 1.01584e-006 -2.57673e-006 -0.0486551 18.5606 67.7823 -19.3532 -8.13155 25.2329 3.48563 
57.6367 91.4961 13.0691 0.0810671 0.877236 -2.48563 0.134087 -1.78151 0.00442169 0.263483 0.439764 -0.0166107 0.263812 2.08482 -0.0210262 -7.54042 22.4343 2.7266 5.47616 -9.41381 0.811536 66.8974 3.4824 0.890659 103.919 7.91229 13.6586 -2.91161e-005 -1.53425e-006 -5.11207e-006 9.5767 15.7609 -2.60015 -5.36726e-006 3.86445e-006 -2.99999 8.029 -4.95146 0.697683 -69.2606 0.38639 1.00896 -101.292 13.9297 -29.3631 2.05022e-005 -1.11409e-005 3.78478e-006 -3.88639 0.0340246 0.38766 5.48594e-006 -1.30208e-006 3.09318 -8.02986 -4.9514 -0.697644 175.055 3.96254 1.06565 180 7.01552e-015 178.946 178.375 5.68431 179.884 -1.02913e-006 2.18841e-006 0.0354895 -18.3334 67.4436 19.0901 8.13287 25.2328 -3.48619 -175.732 0.847376 0.0327413 4.54188e-006 -4.6773e-006 -1.07062 -2.12997 -4.81045 0.0489368 1.01584e-006 -2.57673e-006 -0.0486195 18.554 67.7741 -19.3466 -8.13155 25.2329 3.48563 
57.6375 91.4938 13.0739 0.0749621 0.913857 -2.47859 0.134863 -1.78118 0.00554642 0.265367 0.440427 -0.0133962 0.265663 2.08548 -0.0178415 -7.50323 22.3949 2.71162 5.44599 -9.4024 0.807311 66.9121 3.4713 0.88261 103.878 7.82801 13.7273 -2.91161e-005 -1.53425e-006 -5.11207e-006 9.55581 15.7426 -2.59583 -5.36726e-006 3.86445e-006 -2.99999 8.029 -4.95146 0.697683 -69.2005 0.367382 1.01147 -101.354 13.7945 -29.1603 2.05022e-005 -1.11409e-005 3.78478e-006 -4.11394 0.0355471 0.389656 5.48594e-006 -1.30208e-006 3.08941 -8.02986 -4.9514 -0.697644 175.066 4.01558 1.05455 180 7.01552e-015 178.946 178.381 5.70734 179.884 -1.02913e-006 2.18841e-006 0.0355214 -18.3259 67.4343 19.0818 8.13287 25.2328 -3.48619 -175.724 0.900434 0.0281309 4.54188e-006 -4.6773e-006 -1.0703 -2.13219 -4.82537 0.0487089 1.01584e-006 -2.57673e-006 -0.0485754 18.5473 67.7658 -19.3399 -8.13155 25.2329 3.48563 
57.6413 91.4916 13.0683 0.0688561 0.950348 -2.47146 0.135636 -1.78087 0.00667287 0.267241 0.44106 -0.0101673 0.267502 2.08612 -0.0146421 -7.46595 22.3561 2.69668 5.41562 -9.39116 0.803106 66.9268 3.46023 0.87455 103.837 7.74344 13.796 -2.91161e-005 -1.53425e-006 -5.11207e-006 9.53504 15.7244 -2.59152 -5.36726e-006 3.86445e-006 -2.99999 8.029 -4.95146 0.697683 -69.1404 0.348596 1.01386 -101.416 13.6575 -28.9549 2.05022e-005 -1.11409e-005 3.78478e-006 -4.34462 0.0370885 0.391767 5.48594e-006 -1.30208e-006 3.0856 -8.02986 -4.9514 -0.697644 175.077 4.06839 1.04349 180 7.01552e-015 178.947 178.387 5.73047 179.883 -1.02913e-006 2.18841e-006 0.0355622 -18.3186 67.425 19.0737 8.13287 25.2328 -3.48619 -175.715 0.953082 0.0236008 4.54188e-006 -4.6773e-006 -1.06998 -2.13435 -4.83986 0.0484693 1.01584e-006 -2.57673e-006 -0.0485265 18.5405 67.7574 -19.333 -8.13155 25.2329 3.48563 
57.6447 91.4856 13.0324 0.0627431 0.986804 -2.4643 0.136408 -1.78056 0.00779979 0.269111 0.441686 -0.00693442 0.269338 2.08674 -0.0114387 -7.42865 22.3173 2.68176 5.3852 -9.37996 0.798906 66.9417 3.44917 0.866488 103.796 7.65881 13.8646 -2.91161e-005 -1.53425e-006 -5.11207e-006 9.51431 15.7062 -2.58721 -5.36726e-006 3.86445e-006 -2.99999 8.029 -4.95146 0.697683 -69.0803 0.329871 1.01621 -101.476 13.5196 -28.7491 2.05022e-005 -1.11409e-005 3.78478e-006 -4.57615 0.0386352 0.39391 5.48594e-006 -1.30208e-006 3.08178 -8.02986 -4.9514 -0.697644 175.088 4.12114 1.03243 180 7.01552e-015 178.947 178.393 5.75362 179.883 -1.02913e-006 2.18841e-006 0.0356055 -18.3112 67.4158 19.0655 8.13287 25.2328 -3.48619 -175.707 1.00562 0.0190924 4.54188e-006 -4.6773e-006 -1.06967 -2.13648 -4.85423 0.0482264 1.01584e-006 -2.57673e-006 -0.0484763 18.5337 67.7489 -19.3262 -8.13155 25.2329 3.48563 
57.6493 91.4892 13.0345 0.0566175 1.02332 -2.45719 0.137182 -1.78024 0.00892592 0.270987 0.442325 -0.00370816 0.271179 2.08738 -0.00824198 -7.39142 22.2783 2.66683 5.35487 -9.36868 0.794698 66.9564 3.43809 0.858431 103.755 7.57437 13.9333 -2.91161e-005 -1.53425e-006 -5.11207e-006 9.49352 15.6879 -2.5829 -5.36726e-006 3.86445e-006 -2.99999 8.029 -4.95146 0.697683 -69.0201 0.311044 1.01862 -101.535 13.3813 -28.5451 2.05022e-005 -1.11409e-005 3.78478e-006 -4.80626 0.0401732 0.396 5.48594e-006 -1.30208e-006 3.07798 -8.02986 -4.9514 -0.697644 175.1 4.17399 1.02136 180 7.01552e-015 178.947 178.399 5.77674 179.883 -1.02913e-006 2.18841e-006 0.0356446 -18.3038 67.4066 19.0574 8.13287 25.2328 -3.48619 -175.698 1.05834 0.0145472 4.54188e-006 -4.6773e-006 -1.06936 -2.13865 -4.8688 0.047989 1.01584e-006 -2.57673e-006 -0.0484283 18.5269 67.7405 -19.3194 -8.13155 25.2329 3.48563 
57.6447 91.4887 13.046 0.0504735 1.05999 -2.45018 0.13796 -1.7799 0.01005 0.272875 0.442999 -0.000498998 0.273033 2.08806 -0.00506261 -7.35437 22.2387 2.65189 5.32478 -9.35722 0.790467 66.971 3.42698 0.850386 103.715 7.49037 14.002 -2.91161e-005 -1.53425e-006 -5.11207e-006 9.4726 15.6696 -2.57857 -5.36726e-006 3.86445e-006 -2.99999 8.029 -4.95146 0.697683 -68.96 0.291953 1.02118 -101.593 13.2435 -28.3451 2.05022e-005 -1.11409e-005 3.78478e-006 -5.03266 0.0416886 0.397953 5.48594e-006 -1.30208e-006 3.07422 -8.02986 -4.9514 -0.697644 175.111 4.22711 1.01024 180 7.01552e-015 178.947 178.405 5.7997 179.883 -1.02913e-006 2.18841e-006 0.0356731 -18.2964 67.3972 19.0492 8.13287 25.2328 -3.48619 -175.69 1.11155 0.00990661 4.54188e-006 -4.6773e-006 -1.06903 -2.1409 -4.88389 0.0477654 1.01584e-006 -2.57673e-006 -0.048386 18.5202 67.7322 -19.3127 -8.13155 25.2329 3.48563 
57.6461 91.489 13.0338 0.0443057 1.09691 -2.44337 0.138745 -1.77954 0.0111708 0.274785 0.443731 0.00268258 0.274909 2.08879 -0.00191123 -7.31758 22.1981 2.6369 5.29508 -9.34546 0.7862 66.9852 3.41581 0.842362 103.676 7.40706 14.0706 -2.91161e-005 -1.53425e-006 -5.11207e-006 9.45146 15.6511 -2.57422 -5.36726e-006 3.86445e-006 -2.99999 8.029 -4.95146 0.697683 -68.8999 0.272437 1.02396 -101.649 13.1068 -28.151 2.05022e-005 -1.11409e-005 3.78478e-006 -5.25307 0.0431676 0.399685 5.48594e-006 -1.30208e-006 3.07053 -8.02986 -4.9514 -0.697644 175.122 4.28068 0.999047 180 7.01552e-015 178.947 178.411 5.8225 179.882 -1.02913e-006 2.18841e-006 0.0356844 -18.2888 67.3876 19.0408 8.13287 25.2328 -3.48619 -175.681 1.16554 0.00511196 4.54188e-006 -4.6773e-006 -1.06867 -2.14328 -4.8998 0.0475644 1.01584e-006 -2.57673e-006 -0.0483531 18.5136 67.7241 -19.3061 -8.13155 25.2329 3.48563 
57.6465 91.4886 13.0325 0.0381087 1.13418 -2.4368 0.13954 -1.77913 0.0122871 0.276724 0.444541 0.00582606 0.276815 2.0896 0.0012015 -7.28113 22.1562 2.62186 5.2659 -9.33328 0.781881 66.999 3.40457 0.834365 103.637 7.32468 14.1391 -2.91161e-005 -1.53425e-006 -5.11207e-006 9.43002 15.6325 -2.56983 -5.36726e-006 3.86445e-006 -2.99999 8.029 -4.95146 0.697683 -68.8398 0.252333 1.02707 -101.703 12.972 -27.9651 2.05022e-005 -1.11409e-005 3.78478e-006 -5.46523 0.0445964 0.401113 5.48594e-006 -1.30208e-006 3.06692 -8.02986 -4.9514 -0.697644 175.134 4.33485 0.987751 180 7.01553e-015 178.947 178.417 5.84503 179.882 -1.02913e-006 2.18841e-006 0.0356718 -18.281 67.3778 19.0323 8.13287 25.2328 -3.48619 -175.672 1.22062 0.000104668 4.54188e-006 -4.6773e-006 -1.06829 -2.14585 -4.91686 0.0473945 1.01584e-006 -2.57673e-006 -0.048333 18.5073 67.7163 -19.2998 -8.13155 25.2329 3.48563 
57.6517 91.4853 13.0273 0.0318772 1.1719 -2.43056 0.140347 -1.77868 0.0133976 0.278701 0.445453 0.00892094 0.278758 2.09051 0.00426494 -7.24513 22.1125 2.60675 5.2374 -9.32057 0.777497 67.0123 3.39322 0.826403 103.599 7.24348 14.2076 -2.91161e-005 -1.53425e-006 -5.11207e-006 9.40818 15.6136 -2.56539 -5.36726e-006 3.86445e-006 -2.99999 8.029 -4.95146 0.697683 -68.7797 0.231479 1.03058 -101.754 12.8399 -27.7896 2.05022e-005 -1.11409e-005 3.78478e-006 -5.66685 0.045961 0.402151 5.48594e-006 -1.30208e-006 3.06344 -8.02986 -4.9514 -0.697644 175.146 4.3898 0.976323 180 7.01553e-015 178.948 178.422 5.86721 179.882 -1.02913e-006 2.18841e-006 0.0356288 -18.2729 67.3677 19.0236 8.13287 25.2328 -3.48619 -175.663 1.27707 -0.00517388 4.54188e-006 -4.6773e-006 -1.06786 -2.14866 -4.93538 0.0472643 1.01584e-006 -2.57673e-006 -0.0483293 18.5012 67.7088 -19.2938 -8.13155 25.2329 3.48563 
57.6536 91.483 13.0096 0.0256063 1.21014 -2.4247 0.14117 -1.77817 0.014501 0.280723 0.446487 0.0119567 0.280747 2.09155 0.00726842 -7.20966 22.0666 2.59154 5.20972 -9.30722 0.773034 67.0249 3.38176 0.818485 103.562 7.1637 14.276 -2.91161e-005 -1.53425e-006 -5.11207e-006 9.38587 15.5944 -2.56089 -5.36726e-006 3.86445e-006 -2.99999 8.029 -4.95146 0.697683 -68.7196 0.209713 1.03459 -101.803 12.7112 -27.6264 2.05022e-005 -1.11409e-005 3.78478e-006 -5.85565 0.0472476 0.402717 5.48594e-006 -1.30208e-006 3.0601 -8.02986 -4.9514 -0.697644 175.158 4.44569 0.964735 180 7.01553e-015 178.948 178.428 5.88898 179.881 -1.02913e-006 2.18841e-006 0.0355489 -18.2646 67.3571 19.0146 8.13287 25.2328 -3.48619 -175.654 1.3352 -0.0107823 4.54188e-006 -4.6773e-006 -1.06738 -2.15176 -4.95568 0.0471824 1.01584e-006 -2.57673e-006 -0.0483456 18.4954 67.7017 -19.2881 -8.13155 25.2329 3.48563 
